<?xml version="1.0" encoding="UTF-8"?>
<!DOCTYPE svg PUBLIC "-//W3C//DTD SVG 1.1//EN" "http://www.w3.org/Graphics/SVG/1.1/DTD/svg11.dtd">
<!-- Creator: CorelDRAW X5 -->
<svg xmlns="http://www.w3.org/2000/svg" xml:space="preserve" width="474px" height="512px" style="shape-rendering:geometricPrecision; text-rendering:geometricPrecision; image-rendering:optimizeQuality; fill-rule:evenodd; clip-rule:evenodd"
viewBox="0 0 327.562 352.772"
 xmlns:xlink="http://www.w3.org/1999/xlink">
 <defs>
  <style type="text/css">
   <![CDATA[
    .str0 {stroke:black;stroke-width:4.49921}
    .str1 {stroke:black;stroke-width:8.99949}
    .fil1 {fill:none}
    .fil2 {fill:black}
    .fil0 {fill:#009900}
    .fil4 {fill:#FF9900}
    .fil3 {fill:white}
   ]]>
  </style>
 </defs>
 <g id="Layer_x0020_1">
  <metadata id="CorelCorpID_0Corel-Layer"/>
  <path class="fil0" d="M310.118 350.897c-4.89355,-6.61649 -18.7483,-7.49869 -5.62481,-28.1219 -28.1219,24.3721 -35.6217,24.3721 -28.1219,-11.2486 -18.7483,35.6206 -44.9964,43.1204 -44.9964,9.37363 -8.74865,7.49975 -18.7483,11.2486 -26.247,22.4982l-39.3716 0c-1.87494,-11.2496 -10.0592,-22.2803 -14.9984,-28.123 -2.20443,16.6077 1.87494,22.4982 -11.2486,29.9969 -9.37469,-5.62375 -4.35041,-18.7855 -16.8734,-37.4956 1.61028,19.8782 3.74988,26.247 -5.62481,37.4956 -11.2486,-14.9984 -7.49869,-46.8703 -24.3721,-52.494 5.62375,44.9953 9.42039,52.494 -28.123,52.494 -7.49869,0 -11.2486,7.49975 -11.2486,7.49975l258.725 0 -1.87494 -1.87494z"/>
  <path class="fil1 str0" d="M64.5164 345.272c37.4966,1.87494 33.7468,-7.49869 28.123,-52.494 16.8734,5.62375 13.1235,37.4956 24.3721,52.494 9.37469,-11.2486 7.23509,-17.6174 5.62481,-37.4956 12.523,18.7101 7.49869,31.8718 16.8734,37.4956 13.1235,-7.49869 9.04413,-13.3892 11.2486,-29.9969 4.93925,5.84271 13.1235,16.8734 14.9984,28.123l39.3716 0c7.49869,-11.2496 17.4984,-14.9984 26.247,-22.4982 0,33.7468 26.2481,26.247 44.9964,-9.37363 -7.49975,35.6206 0,35.6206 28.1219,11.2486 -13.1235,20.6233 0.731268,21.5055 5.62481,28.1219"/>
  <path class="fil2" d="M113.507 141.097c33.5012,44.8168 61.6242,123.559 52.2495,206.051l39.3716 0c-4.68309,-21.0155 -8.9676,-42.6952 -13.1628,-58.7034l0.00212578 0c22.9212,-14.5945 39.7106,-33.8328 50.3682,-57.7128l-8.79541 -5.72154c-13.3425,19.7708 -28.4376,33.6107 -45.2855,41.5207 -0.629231,0.650489 -1.21807,1.28822 -1.76971,1.91108 -13.5327,-47.1275 -27.5384,-79.2374 -52.5227,-135.354l-20.4553 8.00888z"/>
  <g id="_183109376">
   <path id="_180260944" class="fil3 str1" d="M256.874 209.855c52.8416,4.8489 75.4726,-66.4455 34.5577,-83.0223 -40.9149,-16.5768 -71.6398,63.632 -34.5577,83.0223z"/>
   <path id="_180261952" class="fil0 str1" d="M256.286 222.412c-29.7705,43.9261 21.7223,98.1802 56.0005,70.3622 34.2782,-27.818 -21.1101,-93.4652 -56.0005,-70.3622z"/>
   <path id="_180262120" class="fil4 str1" d="M239.744 204.224c17.4888,-50.0983 -46.2113,-89.3061 -72.1947,-53.6175 -25.9834,35.6887 44.4075,84.9068 72.1947,53.6175z"/>
   <circle id="_180256720" class="fil3 str1" cx="244.499" cy="217.785" r="13.1235"/>
   <path id="_183234840" class="fil1 str1" d="M207.003 180.288c14.5797,5.32402 24.3572,14.3968 29.3347,27.2185"/>
   <path id="_183232464" class="fil1 str1" d="M263.247 167.165c3.16529,13.2521 -0.396458,26.5659 -10.6842,39.9423"/>
   <path id="_183234816" class="fil1 str1" d="M255.202 225.382c13.1565,8.60622 22.0869,18.5729 26.7933,29.9002"/>
  </g>
  <g id="_183109640">
   <circle id="_180262456" class="fil3 str1" cx="119.3" cy="125.763" r="16.3866"/>
   <path id="_180262288" class="fil0 str1" d="M129.661 113.067c52.9691,42.8493 127.962,-17.1455 96.0906,-64.0157 -31.8718,-46.8703 -121.864,16.8734 -96.0906,64.0157z"/>
   <path id="_180261208" class="fil3 str1" d="M114.881 104.019c37.5136,-56.8731 -29.4686,-125.697 -73.028,-89.4326 -43.5604,36.2647 28.6056,119.654 73.028,89.4326z"/>
   <path id="_180261064" class="fil4 str1" d="M92.2992 116.8c-63.8063,-23.8863 -115.961,56.7551 -70.8969,91.1322 45.0655,34.377 110.263,-54.5677 70.8969,-91.1322z"/>
   <path id="_180257728" class="fil1 str1" d="M131.785 114.722c10.7161,-16.3483 24.54,-26.9889 41.4718,-31.9239"/>
   <path id="_182938968" class="fil1 str1" d="M112.994 105.225c-8.7986,-16.4397 -22.4578,-27.6649 -40.9776,-33.6755"/>
   <path id="_182939160" class="fil1 str1" d="M98.2631 127.793c-16.7586,8.07903 -29.2571,19.3287 -37.4966,33.7468"/>
  </g>
 </g>
</svg>
